<svg width="877" height="877" viewBox="0 0 877 877" fill="none" xmlns="http://www.w3.org/2000/svg">
<path d="M437.998 725.998C361.88 725.998 288.881 695.76 235.058 641.937C181.235 588.114 150.998 515.115 150.998 438.998C150.998 362.88 181.235 289.881 235.058 236.058C288.881 182.235 361.88 151.998 437.998 151.998L437.998 266.798C392.327 266.798 348.528 284.94 316.234 317.234C283.94 349.528 265.798 393.327 265.798 438.998C265.798 484.668 283.94 528.468 316.234 560.761C348.528 593.055 392.327 611.198 437.998 611.198V725.998Z" fill="#D9D9D9"/>
<path d="M438.5 583C419.524 583 400.734 579.262 383.202 572C365.671 564.739 349.741 554.095 336.323 540.677C322.905 527.259 312.261 511.329 304.999 493.798C297.738 476.266 294 457.476 294 438.5C294 419.524 297.738 400.734 304.999 383.202C312.261 365.671 322.905 349.741 336.323 336.323C349.741 322.905 365.671 312.261 383.202 304.999C400.734 297.737 419.524 294 438.5 294L438.5 351.8C427.114 351.8 415.84 354.042 405.321 358.4C394.802 362.757 385.245 369.143 377.194 377.194C369.143 385.245 362.757 394.802 358.4 405.321C354.043 415.84 351.8 427.114 351.8 438.5C351.8 449.885 354.043 461.16 358.4 471.679C362.757 482.197 369.143 491.755 377.194 499.806C385.245 507.857 394.802 514.243 405.321 518.6C415.84 522.957 427.114 525.2 438.5 525.2V583Z" fill="#D9D9D9"/>
<path d="M438.5 877C322.203 877 210.668 830.801 128.434 748.566C46.199 666.332 8.78021e-06 554.797 0 438.5C-8.78021e-06 322.203 46.199 210.668 128.434 128.434C210.668 46.199 322.203 1.75604e-05 438.5 0L438.5 131.55C357.092 131.55 279.018 163.889 221.454 221.454C163.889 279.018 131.55 357.092 131.55 438.5C131.55 519.908 163.889 597.982 221.454 655.546C279.018 713.111 357.092 745.45 438.5 745.45V877Z" fill="#D9D9D9"/>
</svg>
