<svg width="323" height="165" viewBox="0 0 323 165" fill="none" xmlns="http://www.w3.org/2000/svg">
<g filter="url(#filter0_d_711_6)">
<path d="M78.4657 20.4783L130.563 48.8834L118.756 56.3151L66.1596 27.6457L78.4657 20.4783Z" fill="#ED9511"/>
<path d="M118.756 56.3151L130.563 48.8834V109.988L118.415 103.074L118.756 56.3151Z" fill="#ED9511"/>
<path d="M118.415 103.074L130.563 109.988L111.561 119.366L101.614 111.948L118.415 103.074Z" fill="#ED9511"/>
<path d="M38.1536 41.9804L50.1074 48.4652L36.7875 55.9739L24.5442 49.2732L38.1536 41.9804Z" fill="#FFA046"/>
<path d="M24.5442 49.2732L36.7875 55.9739L36.2113 105.365L24.5442 112.278V49.2732Z" fill="#FFA046"/>
<path d="M36.2113 105.365L78.4548 121.846V135.157L24.5442 112.278L36.2113 105.365Z" fill="#FFA046"/>
<path d="M78.4548 110.924L108.168 96.9304L108.51 62.1174L78.4548 46.0761L47.1175 61.7761V98.8456L78.4548 110.924Z" fill="#049312"/>
<path d="M17.3199 116.726L78.4548 145.098V157L4 124.917L17.3199 116.726Z" fill="#1C008B"/>
<path d="M17.3199 116.726L4 124.917V36.8828L16.1744 43.7199L17.3199 116.726Z" fill="#36316C"/>
<path d="M78.4657 11.3952C58.5133 21.6086 16.986 43.3147 16.1744 43.7199L4 36.8828L78.4657 0V11.3952Z" fill="#4F90CB"/>
<path d="M150.992 37.3006L78.4657 0V11.3952L139.406 43.7854L150.992 37.3006Z" fill="#4F90CB"/>
<path d="M150.992 37.3006C151.248 37.3006 151.757 120.493 152.008 121.548C152.018 121.555 152.019 121.559 152.013 121.559C152.012 121.559 152.01 121.555 152.008 121.548C151.708 121.332 144.212 118.343 140.054 114.557L139.406 43.7854L150.992 37.3006Z" fill="#36316C"/>
<path d="M78.4548 145.098L140.054 114.557L144.146 117.244L152.008 121.548L78.4548 157V145.098Z" fill="#1C008B"/>
<path d="M167.083 90.1042C165.922 90.1042 164.818 89.9677 163.771 89.6947C162.746 89.3989 161.824 88.9552 161.004 88.3636C160.207 87.7493 159.57 86.987 159.092 86.0769C158.613 85.1667 158.352 84.0973 158.306 82.8686C158.306 82.6638 158.374 82.4932 158.511 82.3567C158.648 82.1974 158.83 82.1177 159.057 82.1177H160.902C161.152 82.1177 161.346 82.1974 161.482 82.3567C161.642 82.4932 161.744 82.6752 161.79 82.9027C161.881 83.9266 162.177 84.7572 162.678 85.3943C163.179 86.0086 163.816 86.4637 164.59 86.7595C165.364 87.0553 166.218 87.2032 167.152 87.2032C168.882 87.2032 170.203 86.6343 171.114 85.4966C172.024 84.359 172.48 82.8458 172.48 80.9573V68.841H160.355C160.127 68.841 159.934 68.7727 159.775 68.6362C159.638 68.4769 159.57 68.2835 159.57 68.056V66.6566C159.57 66.4291 159.638 66.2471 159.775 66.1106C159.934 65.9513 160.127 65.8716 160.355 65.8716H175.075C175.326 65.8716 175.519 65.9513 175.656 66.1106C175.815 66.2471 175.895 66.4405 175.895 66.6908V81.0256C175.895 82.8686 175.542 84.4727 174.836 85.838C174.13 87.2032 173.129 88.2612 171.831 89.0121C170.533 89.7402 168.951 90.1042 167.083 90.1042Z" fill="#2D2020"/>
<path d="M182.411 89.7629C182.161 89.7629 181.967 89.6947 181.831 89.5582C181.694 89.3989 181.626 89.2055 181.626 88.9779V66.6908C181.626 66.4405 181.694 66.2471 181.831 66.1106C181.967 65.9513 182.161 65.8716 182.411 65.8716H184.119C184.369 65.8716 184.563 65.9513 184.7 66.1106C184.859 66.2471 184.939 66.4405 184.939 66.6908V75.1551L194.058 66.4177C194.149 66.3267 194.297 66.213 194.502 66.0764C194.729 65.9399 195.025 65.8716 195.39 65.8716H197.234C197.416 65.8716 197.575 65.9399 197.712 66.0764C197.849 66.213 197.917 66.3722 197.917 66.5543C197.917 66.7363 197.871 66.8842 197.78 66.9979L187.227 77.3053L198.463 88.6025C198.577 88.739 198.634 88.8983 198.634 89.0803C198.634 89.2624 198.566 89.4216 198.429 89.5582C198.293 89.6947 198.133 89.7629 197.951 89.7629H196.038C195.651 89.7629 195.355 89.6947 195.15 89.5582C194.946 89.3989 194.798 89.2851 194.707 89.2169L184.939 79.5921V88.9779C184.939 89.2055 184.859 89.3989 184.7 89.5582C184.563 89.6947 184.369 89.7629 184.119 89.7629H182.411Z" fill="#2D2020"/>
<path d="M213.672 89.7629C213.376 89.7629 213.137 89.6833 212.955 89.524C212.796 89.3647 212.682 89.1372 212.614 88.8414L208.208 66.9297C208.185 66.8387 208.174 66.759 208.174 66.6908C208.174 66.6225 208.174 66.577 208.174 66.5543C208.174 66.3722 208.242 66.213 208.379 66.0764C208.515 65.9399 208.675 65.8716 208.857 65.8716H210.633C211.111 65.8716 211.384 66.0651 211.452 66.4519L214.936 84.0632L218.625 71.981C218.693 71.7762 218.807 71.5942 218.966 71.4349C219.148 71.2529 219.399 71.1619 219.718 71.1619H220.981C221.323 71.1619 221.573 71.2529 221.733 71.4349C221.892 71.5942 221.995 71.7762 222.04 71.981L225.763 84.0632L229.212 66.4519C229.281 66.0651 229.565 65.8716 230.066 65.8716H231.842C232.024 65.8716 232.184 65.9399 232.32 66.0764C232.457 66.213 232.525 66.3722 232.525 66.5543C232.525 66.577 232.514 66.6225 232.491 66.6908C232.491 66.759 232.491 66.8387 232.491 66.9297L228.085 88.8414C228.017 89.1372 227.892 89.3647 227.71 89.524C227.55 89.6833 227.322 89.7629 227.026 89.7629H225.695C225.376 89.7629 225.125 89.6833 224.943 89.524C224.761 89.3647 224.636 89.16 224.567 88.9097L220.332 75.906L216.131 88.9097C216.04 89.16 215.904 89.3647 215.722 89.524C215.562 89.6833 215.323 89.7629 215.004 89.7629H213.672Z" fill="#2D2020"/>
<path d="M245.264 90.1042C243.329 90.1042 241.667 89.7743 240.278 89.1145C238.889 88.4319 237.819 87.3966 237.067 86.0086C236.316 84.5979 235.895 82.8345 235.804 80.7184C235.781 79.7172 235.77 78.7616 235.77 77.8514C235.77 76.9185 235.781 75.9515 235.804 74.9503C235.895 72.857 236.327 71.1164 237.102 69.7284C237.898 68.3177 238.991 67.271 240.38 66.5884C241.792 65.883 243.42 65.5303 245.264 65.5303C247.131 65.5303 248.759 65.883 250.148 66.5884C251.56 67.271 252.664 68.3177 253.461 69.7284C254.258 71.1164 254.691 72.857 254.759 74.9503C254.804 75.9515 254.827 76.9185 254.827 77.8514C254.827 78.7616 254.804 79.7172 254.759 80.7184C254.691 82.8345 254.269 84.5979 253.495 86.0086C252.744 87.3966 251.674 88.4319 250.285 89.1145C248.896 89.7743 247.222 90.1042 245.264 90.1042ZM245.264 87.2032C247.017 87.2032 248.441 86.6798 249.533 85.6332C250.649 84.5865 251.253 82.8914 251.344 80.5477C251.389 79.5238 251.412 78.6137 251.412 77.8173C251.412 76.9982 251.389 76.088 251.344 75.0869C251.298 73.5169 251.002 72.2427 250.456 71.2642C249.932 70.2858 249.226 69.5691 248.338 69.114C247.45 68.659 246.425 68.4314 245.264 68.4314C244.149 68.4314 243.147 68.659 242.259 69.114C241.371 69.5691 240.654 70.2858 240.107 71.2642C239.583 72.2427 239.287 73.5169 239.219 75.0869C239.196 76.088 239.185 76.9982 239.185 77.8173C239.185 78.6137 239.196 79.5238 239.219 80.5477C239.31 82.8914 239.914 84.5865 241.029 85.6332C242.145 86.6798 243.557 87.2032 245.264 87.2032Z" fill="#2D2020"/>
<path d="M260.591 89.7629C260.34 89.7629 260.147 89.6947 260.01 89.5582C259.874 89.3989 259.805 89.2055 259.805 88.9779V66.6908C259.805 66.4405 259.874 66.2471 260.01 66.1106C260.147 65.9513 260.34 65.8716 260.591 65.8716H268.924C271.497 65.8716 273.535 66.4746 275.038 67.6806C276.541 68.8865 277.292 70.6727 277.292 73.039C277.292 74.7911 276.848 76.2245 275.96 77.3395C275.095 78.4316 273.911 79.1939 272.408 79.6262L277.668 88.7049C277.736 88.8414 277.77 88.9666 277.77 89.0803C277.77 89.2624 277.691 89.4216 277.531 89.5582C277.395 89.6947 277.235 89.7629 277.053 89.7629H275.414C275.027 89.7629 274.742 89.6606 274.56 89.4558C274.378 89.251 274.218 89.0462 274.082 88.8414L269.129 80.1723H263.152V88.9779C263.152 89.2055 263.073 89.3989 262.913 89.5582C262.777 89.6947 262.583 89.7629 262.333 89.7629H260.591ZM263.152 77.2712H268.788C270.495 77.2712 271.771 76.9185 272.613 76.2132C273.455 75.4851 273.877 74.4156 273.877 73.0049C273.877 71.6169 273.455 70.5589 272.613 69.8308C271.793 69.1027 270.518 68.7386 268.788 68.7386H263.152V77.2712Z" fill="#2D2020"/>
<path d="M282.971 89.7629C282.72 89.7629 282.527 89.6947 282.39 89.5582C282.254 89.3989 282.185 89.2055 282.185 88.9779V66.6908C282.185 66.4405 282.254 66.2471 282.39 66.1106C282.527 65.9513 282.72 65.8716 282.971 65.8716H284.679C284.929 65.8716 285.123 65.9513 285.259 66.1106C285.419 66.2471 285.498 66.4405 285.498 66.6908V75.1551L294.617 66.4177C294.708 66.3267 294.856 66.213 295.061 66.0764C295.289 65.9399 295.585 65.8716 295.949 65.8716H297.794C297.976 65.8716 298.135 65.9399 298.272 66.0764C298.408 66.213 298.477 66.3722 298.477 66.5543C298.477 66.7363 298.431 66.8842 298.34 66.9979L287.787 77.3053L299.023 88.6025C299.137 88.739 299.194 88.8983 299.194 89.0803C299.194 89.2624 299.126 89.4216 298.989 89.5582C298.852 89.6947 298.693 89.7629 298.511 89.7629H296.598C296.211 89.7629 295.915 89.6947 295.71 89.5582C295.505 89.3989 295.357 89.2851 295.266 89.2169L285.498 79.5921V88.9779C285.498 89.2055 285.419 89.3989 285.259 89.5582C285.123 89.6947 284.929 89.7629 284.679 89.7629H282.971Z" fill="#2D2020"/>
<path d="M309.915 90.1042C307.934 90.1042 306.272 89.8085 304.929 89.2169C303.585 88.6025 302.549 87.8175 301.821 86.8619C301.115 85.8835 300.739 84.8482 300.694 83.756C300.694 83.574 300.762 83.4147 300.899 83.2782C301.058 83.1189 301.24 83.0393 301.445 83.0393H303.187C303.46 83.0393 303.665 83.1075 303.802 83.244C303.938 83.3806 304.029 83.5398 304.075 83.7219C304.189 84.268 304.462 84.814 304.895 85.3601C305.35 85.8835 305.976 86.3271 306.773 86.6912C307.593 87.0325 308.64 87.2032 309.915 87.2032C311.873 87.2032 313.308 86.8619 314.219 86.1793C315.152 85.4739 315.619 84.541 315.619 83.3806C315.619 82.5842 315.368 81.9471 314.867 81.4693C314.389 80.9687 313.649 80.525 312.647 80.1382C311.646 79.7514 310.348 79.3304 308.754 78.8753C307.092 78.3975 305.714 77.8742 304.621 77.3053C303.528 76.7365 302.709 76.0311 302.162 75.1893C301.639 74.3474 301.377 73.2779 301.377 71.981C301.377 70.7523 301.707 69.6601 302.367 68.7045C303.027 67.7261 303.972 66.9524 305.202 66.3836C306.454 65.8148 307.968 65.5303 309.744 65.5303C311.156 65.5303 312.386 65.7237 313.433 66.1106C314.503 66.4746 315.391 66.9752 316.097 67.6123C316.803 68.2266 317.338 68.8979 317.702 69.626C318.066 70.3314 318.26 71.0253 318.283 71.7079C318.283 71.8672 318.226 72.0265 318.112 72.1858C317.998 72.3223 317.816 72.3906 317.566 72.3906H315.755C315.596 72.3906 315.425 72.3451 315.243 72.254C315.084 72.163 314.959 71.9924 314.867 71.7421C314.731 70.8092 314.207 70.0242 313.296 69.3871C312.386 68.75 311.202 68.4314 309.744 68.4314C308.264 68.4314 307.058 68.7158 306.124 69.2847C305.213 69.8535 304.758 70.7409 304.758 71.9469C304.758 72.7205 304.974 73.369 305.407 73.8923C305.839 74.3929 306.523 74.8366 307.456 75.2234C308.39 75.6102 309.608 76.0198 311.111 76.4521C312.932 76.9527 314.423 77.4874 315.585 78.0562C316.746 78.6023 317.6 79.2963 318.146 80.1382C318.715 80.9573 319 82.0153 319 83.3123C319 84.7458 318.624 85.9745 317.873 86.9984C317.122 87.9995 316.063 88.7732 314.697 89.3193C313.353 89.8426 311.759 90.1042 309.915 90.1042Z" fill="#2D2020"/>
</g>
<defs>
<filter id="filter0_d_711_6" x="0" y="0" width="323" height="165" filterUnits="userSpaceOnUse" color-interpolation-filters="sRGB">
<feFlood flood-opacity="0" result="BackgroundImageFix"/>
<feColorMatrix in="SourceAlpha" type="matrix" values="0 0 0 0 0 0 0 0 0 0 0 0 0 0 0 0 0 0 127 0" result="hardAlpha"/>
<feOffset dy="4"/>
<feGaussianBlur stdDeviation="2"/>
<feComposite in2="hardAlpha" operator="out"/>
<feColorMatrix type="matrix" values="0 0 0 0 0 0 0 0 0 0 0 0 0 0 0 0 0 0 0.25 0"/>
<feBlend mode="normal" in2="BackgroundImageFix" result="effect1_dropShadow_711_6"/>
<feBlend mode="normal" in="SourceGraphic" in2="effect1_dropShadow_711_6" result="shape"/>
</filter>
</defs>
</svg>
