<svg width="58" height="62" viewBox="0 0 58 62" fill="none" xmlns="http://www.w3.org/2000/svg">
<path d="M29.1792 8.08696L49.5932 19.3043L44.9669 22.2391L24.3571 10.9174L29.1792 8.08696Z" fill="#ED9511"/>
<path d="M44.9669 22.2391L49.5932 19.3043V43.4348L44.833 40.7043L44.9669 22.2391Z" fill="#ED9511"/>
<path d="M44.833 40.7043L49.5932 43.4348L42.1475 47.1383L38.2499 44.2087L44.833 40.7043Z" fill="#ED9511"/>
<path d="M13.383 16.5783L18.067 19.1391L12.8477 22.1043L8.05021 19.4582L13.383 16.5783Z" fill="#FFA046"/>
<path d="M8.05021 19.4582L12.8477 22.1043L12.6219 41.609L8.05021 44.3391V19.4582Z" fill="#FFA046"/>
<path d="M12.6219 41.609L29.1749 48.1174V53.3739L8.05021 44.3391L12.6219 41.609Z" fill="#FFA046"/>
<path d="M29.1749 43.8044L40.8181 38.2783L40.952 24.5304L29.1749 18.1957L16.8955 24.3957V39.0346L29.1749 43.8044Z" fill="#049312"/>
<path d="M5.21937 46.0957L29.1749 57.3V62L0 49.3304L5.21937 46.0957Z" fill="#1C008B"/>
<path d="M5.21937 46.0957L0 49.3304V14.5652L4.77049 17.2652L5.21937 46.0957Z" fill="#36316C"/>
<path d="M29.1792 4.5C21.3609 8.53333 5.08853 17.1052 4.77049 17.2652L0 14.5652L29.1792 0V4.5Z" fill="#4F90CB"/>
<path d="M57.5985 14.7302L29.1792 0V4.5L53.0584 17.2911L57.5985 14.7302Z" fill="#4F90CB"/>
<path d="M57.5985 14.7302C57.6987 14.7302 57.8981 47.5833 57.9967 48C58.0003 48.0027 58.001 48.004 57.9986 48.004C57.9986 48.004 57.9973 48.0027 57.9967 48C57.879 47.9144 54.9418 46.7343 53.3122 45.2389L53.0584 17.2911L57.5985 14.7302Z" fill="#36316C"/>
<path d="M29.1749 57.3L53.3122 45.2389L54.9157 46.3L57.9967 48L29.1749 62V57.3Z" fill="#1C008B"/>
</svg>
