<svg width="315" height="157" viewBox="0 0 315 157" fill="none" xmlns="http://www.w3.org/2000/svg">
<path d="M74.4657 20.4783L126.563 48.8834L114.756 56.3151L62.1596 27.6457L74.4657 20.4783Z" fill="#ED9511"/>
<path d="M114.756 56.3151L126.563 48.8834V109.988L114.415 103.074L114.756 56.3151Z" fill="#ED9511"/>
<path d="M114.415 103.074L126.563 109.988L107.561 119.366L97.6142 111.948L114.415 103.074Z" fill="#ED9511"/>
<path d="M34.1536 41.9804L46.1074 48.4652L32.7875 55.9739L20.5442 49.2732L34.1536 41.9804Z" fill="#FFA046"/>
<path d="M20.5442 49.2732L32.7875 55.9739L32.2113 105.365L20.5442 112.278V49.2732Z" fill="#FFA046"/>
<path d="M32.2113 105.365L74.4549 121.846V135.157L20.5442 112.278L32.2113 105.365Z" fill="#FFA046"/>
<path d="M74.4549 110.924L104.168 96.9304L104.51 62.1174L74.4549 46.0761L43.1175 61.7761V98.8456L74.4549 110.924Z" fill="#049312"/>
<path d="M13.3199 116.726L74.4549 145.098V157L0 124.917L13.3199 116.726Z" fill="#1C008B"/>
<path d="M13.3199 116.726L0 124.917V36.8828L12.1744 43.7199L13.3199 116.726Z" fill="#36316C"/>
<path d="M74.4657 11.3952C54.5133 21.6086 12.986 43.3147 12.1744 43.7199L0 36.8828L74.4657 0V11.3952Z" fill="#4F90CB"/>
<path d="M146.992 37.3006L74.4657 0V11.3952L135.406 43.7854L146.992 37.3006Z" fill="#4F90CB"/>
<path d="M146.992 37.3006C147.248 37.3006 147.757 120.493 148.008 121.548C148.018 121.555 148.019 121.559 148.013 121.559C148.012 121.559 148.01 121.555 148.008 121.548C147.708 121.332 140.212 118.343 136.054 114.557L135.406 43.7854L146.992 37.3006Z" fill="#36316C"/>
<path d="M74.4549 145.098L136.054 114.557L140.146 117.244L148.008 121.548L74.4549 157V145.098Z" fill="#1C008B"/>
<path d="M163.083 90.1042C161.922 90.1042 160.818 89.9677 159.771 89.6947C158.746 89.3989 157.824 88.9552 157.004 88.3636C156.207 87.7493 155.57 86.987 155.092 86.0769C154.613 85.1667 154.352 84.0973 154.306 82.8686C154.306 82.6638 154.374 82.4932 154.511 82.3566C154.648 82.1974 154.83 82.1177 155.057 82.1177H156.902C157.152 82.1177 157.346 82.1974 157.482 82.3566C157.642 82.4932 157.744 82.6752 157.79 82.9027C157.881 83.9266 158.177 84.7572 158.678 85.3943C159.179 86.0086 159.816 86.4637 160.59 86.7595C161.364 87.0553 162.218 87.2032 163.152 87.2032C164.882 87.2032 166.203 86.6343 167.114 85.4966C168.024 84.359 168.48 82.8459 168.48 80.9573V68.841H156.355C156.127 68.841 155.934 68.7727 155.775 68.6362C155.638 68.4769 155.57 68.2835 155.57 68.056V66.6566C155.57 66.4291 155.638 66.2471 155.775 66.1106C155.934 65.9513 156.127 65.8716 156.355 65.8716H171.075C171.326 65.8716 171.519 65.9513 171.656 66.1106C171.815 66.2471 171.895 66.4405 171.895 66.6908V81.0256C171.895 82.8686 171.542 84.4727 170.836 85.8379C170.13 87.2032 169.129 88.2612 167.831 89.0121C166.533 89.7402 164.951 90.1042 163.083 90.1042Z" fill="#2D2020"/>
<path d="M178.411 89.7629C178.161 89.7629 177.967 89.6947 177.831 89.5582C177.694 89.3989 177.626 89.2055 177.626 88.9779V66.6908C177.626 66.4405 177.694 66.2471 177.831 66.1106C177.967 65.9513 178.161 65.8716 178.411 65.8716H180.119C180.369 65.8716 180.563 65.9513 180.7 66.1106C180.859 66.2471 180.939 66.4405 180.939 66.6908V75.1551L190.058 66.4177C190.149 66.3267 190.297 66.2129 190.502 66.0764C190.729 65.9399 191.025 65.8716 191.39 65.8716H193.234C193.416 65.8716 193.575 65.9399 193.712 66.0764C193.849 66.2129 193.917 66.3722 193.917 66.5543C193.917 66.7363 193.871 66.8842 193.78 66.9979L183.227 77.3053L194.463 88.6025C194.577 88.739 194.634 88.8983 194.634 89.0803C194.634 89.2624 194.566 89.4216 194.429 89.5582C194.293 89.6947 194.133 89.7629 193.951 89.7629H192.039C191.651 89.7629 191.355 89.6947 191.15 89.5582C190.946 89.3989 190.798 89.2851 190.707 89.2169L180.939 79.5921V88.9779C180.939 89.2055 180.859 89.3989 180.7 89.5582C180.563 89.6947 180.369 89.7629 180.119 89.7629H178.411Z" fill="#2D2020"/>
<path d="M209.672 89.7629C209.376 89.7629 209.137 89.6833 208.955 89.524C208.796 89.3648 208.682 89.1372 208.614 88.8414L204.208 66.9297C204.185 66.8387 204.174 66.759 204.174 66.6908C204.174 66.6225 204.174 66.577 204.174 66.5543C204.174 66.3722 204.242 66.2129 204.379 66.0764C204.515 65.9399 204.675 65.8716 204.857 65.8716H206.633C207.111 65.8716 207.384 66.0651 207.452 66.4519L210.936 84.0632L214.625 71.981C214.693 71.7762 214.807 71.5942 214.966 71.4349C215.148 71.2529 215.399 71.1619 215.718 71.1619H216.981C217.323 71.1619 217.573 71.2529 217.733 71.4349C217.892 71.5942 217.995 71.7762 218.04 71.981L221.763 84.0632L225.212 66.4519C225.281 66.0651 225.565 65.8716 226.066 65.8716H227.842C228.024 65.8716 228.184 65.9399 228.32 66.0764C228.457 66.2129 228.525 66.3722 228.525 66.5543C228.525 66.577 228.514 66.6225 228.491 66.6908C228.491 66.759 228.491 66.8387 228.491 66.9297L224.085 88.8414C224.017 89.1372 223.892 89.3648 223.71 89.524C223.55 89.6833 223.322 89.7629 223.026 89.7629H221.695C221.376 89.7629 221.125 89.6833 220.943 89.524C220.761 89.3648 220.636 89.16 220.567 88.9097L216.332 75.906L212.131 88.9097C212.04 89.16 211.904 89.3648 211.722 89.524C211.562 89.6833 211.323 89.7629 211.004 89.7629H209.672Z" fill="#2D2020"/>
<path d="M241.264 90.1042C239.329 90.1042 237.667 89.7743 236.278 89.1145C234.889 88.4319 233.819 87.3966 233.067 86.0086C232.316 84.5979 231.895 82.8345 231.804 80.7184C231.781 79.7172 231.77 78.7616 231.77 77.8514C231.77 76.9185 231.781 75.9515 231.804 74.9503C231.895 72.857 232.327 71.1164 233.102 69.7284C233.898 68.3177 234.991 67.271 236.38 66.5884C237.792 65.883 239.42 65.5303 241.264 65.5303C243.131 65.5303 244.759 65.883 246.148 66.5884C247.56 67.271 248.664 68.3177 249.461 69.7284C250.258 71.1164 250.691 72.857 250.759 74.9503C250.804 75.9515 250.827 76.9185 250.827 77.8514C250.827 78.7616 250.804 79.7172 250.759 80.7184C250.691 82.8345 250.269 84.5979 249.495 86.0086C248.744 87.3966 247.674 88.4319 246.285 89.1145C244.896 89.7743 243.222 90.1042 241.264 90.1042ZM241.264 87.2032C243.017 87.2032 244.441 86.6798 245.533 85.6332C246.649 84.5865 247.252 82.8914 247.344 80.5477C247.389 79.5238 247.412 78.6137 247.412 77.8173C247.412 76.9982 247.389 76.088 247.344 75.0869C247.298 73.5169 247.002 72.2427 246.456 71.2642C245.932 70.2858 245.226 69.5691 244.338 69.114C243.45 68.659 242.425 68.4314 241.264 68.4314C240.149 68.4314 239.147 68.659 238.259 69.114C237.371 69.5691 236.654 70.2858 236.107 71.2642C235.583 72.2427 235.287 73.5169 235.219 75.0869C235.196 76.088 235.185 76.9982 235.185 77.8173C235.185 78.6137 235.196 79.5238 235.219 80.5477C235.31 82.8914 235.914 84.5865 237.029 85.6332C238.145 86.6798 239.557 87.2032 241.264 87.2032Z" fill="#2D2020"/>
<path d="M256.591 89.7629C256.34 89.7629 256.147 89.6947 256.01 89.5582C255.874 89.3989 255.805 89.2055 255.805 88.9779V66.6908C255.805 66.4405 255.874 66.2471 256.01 66.1106C256.147 65.9513 256.34 65.8716 256.591 65.8716H264.924C267.497 65.8716 269.535 66.4746 271.038 67.6806C272.541 68.8865 273.292 70.6727 273.292 73.039C273.292 74.7911 272.848 76.2245 271.96 77.3395C271.095 78.4316 269.911 79.1939 268.408 79.6262L273.668 88.7049C273.736 88.8414 273.77 88.9666 273.77 89.0803C273.77 89.2624 273.691 89.4216 273.531 89.5582C273.395 89.6947 273.235 89.7629 273.053 89.7629H271.414C271.027 89.7629 270.742 89.6606 270.56 89.4558C270.378 89.251 270.218 89.0462 270.082 88.8414L265.129 80.1723H259.152V88.9779C259.152 89.2055 259.073 89.3989 258.913 89.5582C258.777 89.6947 258.583 89.7629 258.333 89.7629H256.591ZM259.152 77.2712H264.788C266.495 77.2712 267.771 76.9185 268.613 76.2132C269.455 75.4851 269.877 74.4156 269.877 73.0049C269.877 71.6169 269.455 70.5589 268.613 69.8308C267.793 69.1027 266.518 68.7386 264.788 68.7386H259.152V77.2712Z" fill="#2D2020"/>
<path d="M278.971 89.7629C278.72 89.7629 278.527 89.6947 278.39 89.5582C278.254 89.3989 278.185 89.2055 278.185 88.9779V66.6908C278.185 66.4405 278.254 66.2471 278.39 66.1106C278.527 65.9513 278.72 65.8716 278.971 65.8716H280.679C280.929 65.8716 281.123 65.9513 281.259 66.1106C281.419 66.2471 281.498 66.4405 281.498 66.6908V75.1551L290.617 66.4177C290.708 66.3267 290.856 66.2129 291.061 66.0764C291.289 65.9399 291.585 65.8716 291.949 65.8716H293.794C293.976 65.8716 294.135 65.9399 294.272 66.0764C294.408 66.2129 294.477 66.3722 294.477 66.5543C294.477 66.7363 294.431 66.8842 294.34 66.9979L283.787 77.3053L295.023 88.6025C295.137 88.739 295.194 88.8983 295.194 89.0803C295.194 89.2624 295.126 89.4216 294.989 89.5582C294.852 89.6947 294.693 89.7629 294.511 89.7629H292.598C292.211 89.7629 291.915 89.6947 291.71 89.5582C291.505 89.3989 291.357 89.2851 291.266 89.2169L281.498 79.5921V88.9779C281.498 89.2055 281.419 89.3989 281.259 89.5582C281.123 89.6947 280.929 89.7629 280.679 89.7629H278.971Z" fill="#2D2020"/>
<path d="M305.915 90.1042C303.934 90.1042 302.272 89.8085 300.929 89.2169C299.585 88.6025 298.549 87.8175 297.821 86.8619C297.115 85.8835 296.739 84.8482 296.694 83.756C296.694 83.574 296.762 83.4147 296.899 83.2782C297.058 83.1189 297.24 83.0393 297.445 83.0393H299.187C299.46 83.0393 299.665 83.1075 299.802 83.244C299.938 83.3806 300.029 83.5398 300.075 83.7219C300.189 84.268 300.462 84.814 300.895 85.3601C301.35 85.8835 301.976 86.3272 302.773 86.6912C303.593 87.0325 304.64 87.2032 305.915 87.2032C307.873 87.2032 309.308 86.8619 310.218 86.1793C311.152 85.4739 311.619 84.541 311.619 83.3806C311.619 82.5842 311.368 81.9471 310.867 81.4693C310.389 80.9687 309.649 80.525 308.647 80.1382C307.646 79.7514 306.348 79.3304 304.754 78.8753C303.092 78.3975 301.714 77.8742 300.621 77.3053C299.528 76.7365 298.709 76.0311 298.162 75.1893C297.639 74.3474 297.377 73.2779 297.377 71.981C297.377 70.7523 297.707 69.6601 298.367 68.7045C299.027 67.7261 299.972 66.9524 301.202 66.3836C302.454 65.8148 303.968 65.5303 305.744 65.5303C307.156 65.5303 308.386 65.7237 309.433 66.1106C310.503 66.4746 311.391 66.9752 312.097 67.6123C312.803 68.2266 313.338 68.8979 313.702 69.626C314.066 70.3314 314.26 71.0253 314.283 71.7079C314.283 71.8672 314.226 72.0265 314.112 72.1858C313.998 72.3223 313.816 72.3906 313.566 72.3906H311.755C311.596 72.3906 311.425 72.3451 311.243 72.254C311.084 72.163 310.958 71.9924 310.867 71.7421C310.731 70.8092 310.207 70.0242 309.296 69.3871C308.386 68.75 307.202 68.4314 305.744 68.4314C304.264 68.4314 303.058 68.7158 302.124 69.2847C301.213 69.8535 300.758 70.7409 300.758 71.9469C300.758 72.7205 300.974 73.369 301.407 73.8923C301.839 74.3929 302.523 74.8366 303.456 75.2234C304.39 75.6102 305.608 76.0198 307.111 76.4521C308.932 76.9527 310.423 77.4874 311.585 78.0562C312.746 78.6023 313.6 79.2963 314.146 80.1382C314.715 80.9573 315 82.0153 315 83.3123C315 84.7458 314.624 85.9745 313.873 86.9984C313.122 87.9995 312.063 88.7732 310.697 89.3193C309.353 89.8426 307.759 90.1042 305.915 90.1042Z" fill="#2D2020"/>
</svg>
